<svg xmlns="http://www.w3.org/2000/svg"><defs><symbol id="icon-purse" viewBox="0 0 54 54"><path d="M36.324.008A2.98 2.98 0 0 0 34.62.4L21.455 8H7c-3.848 0-7 3.153-7 7v32c0 3.847 3.153 7 7 7h36c3.846 0 7-3.153 7-7v-8h4V25h-4V15c0-3.849-3.15-7-7-7h-.535L38.71 1.496A2.987 2.987 0 0 0 36.324.008zm-.334 1.994a1.015 1.015 0 0 1 .996.492L43.625 14H15.051L35.615 2.127a.984.984 0 0 1 .375-.125zM7 10h10.99l-6.93 4H6a1 1 0 0 0 0 2h42v9h-7c-3.847 0-7 3.153-7 7 0 3.85 3.151 7 7 7h7v8c0 2.754-2.247 5-5 5H7a5.01 5.01 0 0 1-5-5V15c0-2.75 2.249-5 5-5zm36.645.043A5.024 5.024 0 0 1 47.9 14h-1.974l-2.281-3.957zM41 27h11v10H41c-2.75 0-5-2.251-5-5 0-2.753 2.247-5 5-5zm0 3a2 2 0 1 0 0 4 2 2 0 0 0 0-4z"/></symbol></defs></svg>