<svg xmlns="http://www.w3.org/2000/svg" xmlns:xlink="http://www.w3.org/1999/xlink">

	<defs>

		<symbol id="icon-purse" viewBox="0 0 54 54">
			<path d="M 36.324219 0.0078125 C 35.749672 -0.033015625 35.156141 0.090640625 34.619141 0.40039062 L 21.455078 8 L 7 8 C 3.152 8 0 11.153 0 15 L 0 47 C 0 50.847 3.153 54 7 54 L 43 54 C 46.846 54 50 50.847 50 47 L 50 39 L 54 39 L 54 25 L 50 25 L 50 15 C 50 11.151 46.85 8 43 8 L 42.464844 8 L 38.710938 1.4960938 C 38.297937 0.78109375 37.631625 0.2995625 36.890625 0.1015625 C 36.705875 0.0520625 36.515734 0.021421875 36.324219 0.0078125 z M 35.990234 2.0019531 C 36.119609 1.9863281 36.25 1.9957969 36.375 2.0292969 C 36.623 2.0962969 36.847328 2.2571406 36.986328 2.4941406 L 43.625 14 L 15.050781 14 L 35.615234 2.1269531 C 35.732734 2.0589531 35.860859 2.0175781 35.990234 2.0019531 z M 7 10 L 17.990234 10 L 11.060547 14 L 6 14 C 5.448 14 5 14.448 5 15 C 5 15.552 5.448 16 6 16 L 48 16 L 48 25 L 41 25 C 37.153 25 34 28.153 34 32 C 34 35.85 37.151 39 41 39 L 48 39 L 48 47 C 48 49.754 45.753 52 43 52 L 7 52 C 4.247 52 2 49.754 2 47 L 2 15 C 2 12.25 4.249 10 7 10 z M 43.644531 10.042969 C 45.752531 10.316969 47.475391 11.921 47.900391 14 L 45.925781 14 L 43.644531 10.042969 z M 41 27 L 52 27 L 52 37 L 41 37 C 38.25 37 36 34.749 36 32 C 36 29.247 38.247 27 41 27 z M 41 30 C 39.896 30 39 30.895 39 32 C 39 33.104 39.896 34 41 34 C 42.104 34 43 33.104 43 32 C 43 30.895 42.104 30 41 30 z"></path>
		</symbol>



	</defs>

</svg>
